<svg width="33" height="32" viewBox="0 0 33 32" fill="none" xmlns="http://www.w3.org/2000/svg">
<g clip-path="url(#clip0_41_1691)">
<path d="M31.043 15.25H29.793V11C29.793 10.5359 29.6086 10.0908 29.2804 9.76256C28.9522 9.43437 28.5071 9.25 28.043 9.25H25.793V8C25.793 7.53587 25.6086 7.09075 25.2804 6.76256C24.9522 6.43437 24.5071 6.25 24.043 6.25H21.043C20.5788 6.25 20.1337 6.43437 19.8055 6.76256C19.4773 7.09075 19.293 7.53587 19.293 8V15.25H12.793V8C12.793 7.53587 12.6086 7.09075 12.2804 6.76256C11.9522 6.43437 11.5071 6.25 11.043 6.25H8.04297C7.57884 6.25 7.13372 6.43437 6.80553 6.76256C6.47734 7.09075 6.29297 7.53587 6.29297 8V9.25H4.04297C3.57884 9.25 3.13372 9.43437 2.80553 9.76256C2.47734 10.0908 2.29297 10.5359 2.29297 11V15.25H1.04297C0.844056 15.25 0.653291 15.329 0.512639 15.4697C0.371986 15.6103 0.292969 15.8011 0.292969 16C0.292969 16.1989 0.371986 16.3897 0.512639 16.5303C0.653291 16.671 0.844056 16.75 1.04297 16.75H2.29297V21C2.29297 21.4641 2.47734 21.9092 2.80553 22.2374C3.13372 22.5656 3.57884 22.75 4.04297 22.75H6.29297V24C6.29297 24.4641 6.47734 24.9092 6.80553 25.2374C7.13372 25.5656 7.57884 25.75 8.04297 25.75H11.043C11.5071 25.75 11.9522 25.5656 12.2804 25.2374C12.6086 24.9092 12.793 24.4641 12.793 24V16.75H19.293V24C19.293 24.4641 19.4773 24.9092 19.8055 25.2374C20.1337 25.5656 20.5788 25.75 21.043 25.75H24.043C24.5071 25.75 24.9522 25.5656 25.2804 25.2374C25.6086 24.9092 25.793 24.4641 25.793 24V22.75H28.043C28.5071 22.75 28.9522 22.5656 29.2804 22.2374C29.6086 21.9092 29.793 21.4641 29.793 21V16.75H31.043C31.2419 16.75 31.4326 16.671 31.5733 16.5303C31.714 16.3897 31.793 16.1989 31.793 16C31.793 15.8011 31.714 15.6103 31.5733 15.4697C31.4326 15.329 31.2419 15.25 31.043 15.25ZM4.04297 21.25C3.97666 21.25 3.91308 21.2237 3.86619 21.1768C3.81931 21.1299 3.79297 21.0663 3.79297 21V11C3.79297 10.9337 3.81931 10.8701 3.86619 10.8232C3.91308 10.7763 3.97666 10.75 4.04297 10.75H6.29297V21.25H4.04297ZM11.293 24C11.293 24.0663 11.2666 24.1299 11.2197 24.1768C11.1729 24.2237 11.1093 24.25 11.043 24.25H8.04297C7.97666 24.25 7.91308 24.2237 7.86619 24.1768C7.81931 24.1299 7.79297 24.0663 7.79297 24V8C7.79297 7.9337 7.81931 7.87011 7.86619 7.82322C7.91308 7.77634 7.97666 7.75 8.04297 7.75H11.043C11.1093 7.75 11.1729 7.77634 11.2197 7.82322C11.2666 7.87011 11.293 7.9337 11.293 8V24ZM24.293 24C24.293 24.0663 24.2666 24.1299 24.2197 24.1768C24.1729 24.2237 24.1093 24.25 24.043 24.25H21.043C20.9767 24.25 20.9131 24.2237 20.8662 24.1768C20.8193 24.1299 20.793 24.0663 20.793 24V8C20.793 7.9337 20.8193 7.87011 20.8662 7.82322C20.9131 7.77634 20.9767 7.75 21.043 7.75H24.043C24.1093 7.75 24.1729 7.77634 24.2197 7.82322C24.2666 7.87011 24.293 7.9337 24.293 8V24ZM28.293 21C28.293 21.0663 28.2666 21.1299 28.2197 21.1768C28.1729 21.2237 28.1093 21.25 28.043 21.25H25.793V10.75H28.043C28.1093 10.75 28.1729 10.7763 28.2197 10.8232C28.2666 10.8701 28.293 10.9337 28.293 11V21Z" fill="#F69134"/>
</g>
<defs>
<clipPath id="clip0_41_1691">
<rect width="32" height="32" fill="white" transform="translate(0.0429688)"/>
</clipPath>
</defs>
</svg>
