<svg width="33" height="32" viewBox="0 0 33 32" fill="none" xmlns="http://www.w3.org/2000/svg">
<path d="M28.043 13.25H26.7642C26.5658 10.5422 25.3501 8.00978 23.3613 6.16142C21.3725 4.31307 18.758 3.28571 16.043 3.28571C13.3279 3.28571 10.7134 4.31307 8.72462 6.16142C6.73586 8.00978 5.52015 10.5422 5.32172 13.25H4.04297C3.84406 13.25 3.65329 13.329 3.51264 13.4697C3.37199 13.6103 3.29297 13.8011 3.29297 14C3.29743 16.3581 3.95353 18.6691 5.18882 20.6778C6.42411 22.6865 8.19052 24.3146 10.293 25.3825V26C10.293 26.4642 10.4773 26.9093 10.8055 27.2375C11.1337 27.5656 11.5788 27.75 12.043 27.75H20.043C20.5071 27.75 20.9522 27.5656 21.2804 27.2375C21.6086 26.9093 21.793 26.4642 21.793 26V25.3825C23.8954 24.3146 25.6618 22.6865 26.8971 20.6778C28.1324 18.6691 28.7885 16.3581 28.793 14C28.793 13.8011 28.714 13.6103 28.5733 13.4697C28.4326 13.329 28.2419 13.25 28.043 13.25ZM21.823 6.78627C22.1859 7.07694 22.5264 7.3945 22.8417 7.73627C21.4495 8.1696 20.1602 8.88197 19.0523 9.82993C17.9445 10.7779 17.0413 11.9416 16.398 13.25H12.2105C12.8012 11.3687 13.9757 9.72452 15.5639 8.55578C17.152 7.38705 19.0711 6.75455 21.043 6.75002C21.303 6.75002 21.5642 6.76377 21.823 6.78627ZM23.8305 9.01752C24.6482 10.2892 25.1394 11.743 25.2605 13.25H18.103C18.73 12.2006 19.5592 11.2861 20.5424 10.5595C21.5256 9.833 22.6432 9.30886 23.8305 9.01752ZM16.043 4.75002C17.1888 4.74815 18.3249 4.96011 19.393 5.37502C17.3299 5.70069 15.4057 6.61811 13.8538 8.01599C12.302 9.41386 11.1892 11.2321 10.6505 13.25H6.82547C7.01635 10.9356 8.06981 8.77729 9.77703 7.20295C11.4843 5.62862 13.7207 4.75313 16.043 4.75002ZM20.7305 24.23C20.5998 24.2899 20.4891 24.3861 20.4116 24.5071C20.334 24.6281 20.2928 24.7688 20.293 24.9125V26C20.293 26.0663 20.2666 26.1299 20.2197 26.1768C20.1729 26.2237 20.1093 26.25 20.043 26.25H12.043C11.9767 26.25 11.9131 26.2237 11.8662 26.1768C11.8193 26.1299 11.793 26.0663 11.793 26V24.9125C11.7931 24.7688 11.7519 24.6281 11.6744 24.5071C11.5968 24.3861 11.4861 24.2899 11.3555 24.23C9.51562 23.3815 7.9379 22.0538 6.78769 20.3858C5.63748 18.7179 4.95713 16.7713 4.81797 14.75H27.268C27.1288 16.7713 26.4485 18.7179 25.2982 20.3858C24.148 22.0538 22.5703 23.3815 20.7305 24.23Z" fill="#F21E84"/>
</svg>
