<svg width="33" height="32" viewBox="0 0 33 32" fill="none" xmlns="http://www.w3.org/2000/svg">
<path d="M29.7934 12C29.7934 12.1989 29.7144 12.3897 29.5737 12.5303C29.4331 12.671 29.2423 12.75 29.0434 12.75H26.7934V15C26.7934 15.1989 26.7144 15.3897 26.5737 15.5303C26.4331 15.671 26.2423 15.75 26.0434 15.75C25.8445 15.75 25.6537 15.671 25.5131 15.5303C25.3724 15.3897 25.2934 15.1989 25.2934 15V12.75H23.0434C22.8445 12.75 22.6537 12.671 22.5131 12.5303C22.3724 12.3897 22.2934 12.1989 22.2934 12C22.2934 11.8011 22.3724 11.6103 22.5131 11.4697C22.6537 11.329 22.8445 11.25 23.0434 11.25H25.2934V9C25.2934 8.80109 25.3724 8.61032 25.5131 8.46967C25.6537 8.32902 25.8445 8.25 26.0434 8.25C26.2423 8.25 26.4331 8.32902 26.5737 8.46967C26.7144 8.61032 26.7934 8.80109 26.7934 9V11.25H29.0434C29.2423 11.25 29.4331 11.329 29.5737 11.4697C29.7144 11.6103 29.7934 11.8011 29.7934 12ZM18.0434 6.75H19.2934V8C19.2934 8.19891 19.3724 8.38968 19.5131 8.53033C19.6537 8.67098 19.8445 8.75 20.0434 8.75C20.2423 8.75 20.4331 8.67098 20.5737 8.53033C20.7144 8.38968 20.7934 8.19891 20.7934 8V6.75H22.0434C22.2423 6.75 22.4331 6.67098 22.5737 6.53033C22.7144 6.38968 22.7934 6.19891 22.7934 6C22.7934 5.80109 22.7144 5.61032 22.5737 5.46967C22.4331 5.32902 22.2423 5.25 22.0434 5.25H20.7934V4C20.7934 3.80109 20.7144 3.61032 20.5737 3.46967C20.4331 3.32902 20.2423 3.25 20.0434 3.25C19.8445 3.25 19.6537 3.32902 19.5131 3.46967C19.3724 3.61032 19.2934 3.80109 19.2934 4V5.25H18.0434C17.8445 5.25 17.6537 5.32902 17.5131 5.46967C17.3724 5.61032 17.2934 5.80109 17.2934 6C17.2934 6.19891 17.3724 6.38968 17.5131 6.53033C17.6537 6.67098 17.8445 6.75 18.0434 6.75ZM26.9497 19.285C27.0369 19.3867 27.0953 19.5099 27.1189 19.6418C27.1424 19.7736 27.1301 19.9094 27.0834 20.035C26.4047 21.8886 25.27 23.5413 23.7839 24.8406C22.2979 26.1399 20.5085 27.0439 18.5809 27.4691C16.6534 27.8943 14.6497 27.827 12.755 27.2735C10.8602 26.72 9.13547 25.6981 7.73992 24.3021C6.34437 22.9061 5.32301 21.181 4.77013 19.286C4.21724 17.3911 4.15065 15.3875 4.57651 13.46C5.00236 11.5326 5.90694 9.74346 7.20672 8.25787C8.5065 6.77228 10.1596 5.63809 12.0134 4.96C12.1382 4.91458 12.2729 4.90313 12.4036 4.92681C12.5343 4.9505 12.6563 5.00847 12.7573 5.0948C12.8582 5.18112 12.9345 5.29272 12.9781 5.41816C13.0218 5.5436 13.0314 5.67839 13.0059 5.80875C12.6845 7.44001 12.7282 9.1222 13.1339 10.7346C13.5395 12.3469 14.2971 13.8495 15.3523 15.1344C16.4074 16.4194 17.7339 17.4548 19.2366 18.1663C20.7392 18.8779 22.3808 19.248 24.0434 19.25C24.779 19.2503 25.5128 19.1791 26.2347 19.0375C26.3651 19.0117 26.5 19.021 26.6257 19.0645C26.7513 19.108 26.8631 19.1841 26.9497 19.285ZM25.1534 20.7025C24.7851 20.7342 24.4151 20.75 24.0434 20.75C20.6631 20.746 17.4224 19.4015 15.0322 17.0112C12.642 14.621 11.2974 11.3803 11.2934 8C11.2934 7.62917 11.3092 7.25917 11.3409 6.89C9.90859 7.63052 8.67117 8.69851 7.72921 10.0072C6.78725 11.3159 6.16732 12.8283 5.9198 14.4216C5.67227 16.0149 5.80414 17.6442 6.30468 19.177C6.80521 20.7097 7.6603 22.1028 8.80046 23.2429C9.94062 24.3831 11.3337 25.2382 12.8665 25.7387C14.3992 26.2393 16.0285 26.3711 17.6218 26.1236C19.2151 25.8761 20.7275 25.2562 22.0362 24.3142C23.3449 23.3722 24.4129 22.1348 25.1534 20.7025Z" fill="#22C1C1"/>
</svg>
